<svg width="12" height="12" viewBox="0 0 12 12" fill="none" xmlns="http://www.w3.org/2000/svg">
<path d="M11.9998 5.72731C11.9881 3.57527 9.31527 1.84424 6.04099 1.84424H5.96324C4.90331 1.84381 3.85276 2.04287 2.86646 2.43103C1.21025 3.09263 0.0792164 4.26621 0 5.61289C0 5.64956 0 5.68624 0 5.72438C0 5.74052 0 5.75665 0 5.77279V5.79039C0 5.80213 0 5.8124 0 5.82267C0 5.83293 0 5.88281 0 5.92095C0 5.95909 0 5.9943 0 6.00164C0 6.00897 0 6.01777 0 6.02511V6.05298C0 6.08232 0 6.11313 0 6.14393C0 6.17474 0 6.19821 0 6.22608C0.0645467 7.29697 0.645467 8.27104 1.65181 8.98252C2.74324 9.75415 4.22488 10.1561 5.93977 10.1561H6.03072C7.79108 10.1414 9.30206 9.70721 10.3979 8.9033C11.4409 8.13755 12.0116 7.08866 11.9998 5.94736V5.72731Z" fill="#0A0080"/>
<path d="M5.40737 7.4008C5.46134 7.37959 5.51823 7.36673 5.57607 7.36266C5.63487 7.35877 5.69385 7.36693 5.74938 7.38664C5.80492 7.40634 5.85585 7.43719 5.89904 7.47727C5.94223 7.51736 5.97679 7.56584 6.00058 7.61976C6.02437 7.67367 6.0369 7.73187 6.0374 7.7908C6.0379 7.84973 6.02636 7.90814 6.00349 7.96244C5.98061 8.01675 5.94689 8.06582 5.90438 8.10663C5.86188 8.14745 5.81148 8.17915 5.75629 8.1998C5.7011 8.22044 5.64227 8.2296 5.58341 8.22671C5.47277 8.22759 5.36607 8.18563 5.28568 8.10961C5.20528 8.03359 5.15742 7.92941 5.15212 7.81889C5.15212 7.7206 5.09491 7.70447 5.0641 7.70447C5.03305 7.7077 5.0043 7.72234 4.98342 7.74554C4.95738 7.77408 4.92596 7.79719 4.89097 7.81355C4.85598 7.82992 4.8181 7.83921 4.77951 7.8409C4.73198 7.84102 4.68497 7.83102 4.64161 7.81156C4.56734 7.79249 4.50261 7.74691 4.45964 7.6834C4.41667 7.61989 4.39843 7.54285 4.40836 7.46682C4.41231 7.45192 4.41263 7.43629 4.40931 7.42123C4.406 7.40618 4.39913 7.39213 4.38929 7.38027C4.37528 7.36836 4.35872 7.35983 4.34088 7.35533C4.32667 7.35365 4.31226 7.355 4.2986 7.3593C4.28495 7.3636 4.27236 7.37074 4.26167 7.38027C4.20111 7.43163 4.12746 7.46515 4.04896 7.47709C4.00987 7.47742 3.97106 7.47046 3.93453 7.45655C3.82932 7.4242 3.73967 7.35433 3.6826 7.26021C3.62553 7.16609 3.60504 7.05429 3.625 6.94604C3.62921 6.93127 3.62894 6.91559 3.62424 6.90097C3.61954 6.88635 3.61062 6.87345 3.5986 6.86389C3.55899 6.83895 3.52231 6.87563 3.49884 6.8991C3.47236 6.92481 3.44036 6.94412 3.40527 6.95556C3.37018 6.96701 3.33294 6.97027 3.2964 6.96511C3.208 6.95881 3.12494 6.92046 3.06282 6.85725C3.00069 6.79405 2.96378 6.71034 2.959 6.62184C2.95861 6.57869 2.96673 6.53588 2.98288 6.49587C2.99904 6.45585 3.02292 6.41941 3.05316 6.38862C3.08341 6.35784 3.11942 6.33331 3.15914 6.31644C3.19886 6.29957 3.24151 6.29069 3.28467 6.29031C3.36256 6.27886 3.44183 6.29841 3.50546 6.34477C3.56909 6.39112 3.61201 6.46058 3.625 6.53823C3.62582 6.54456 3.62582 6.55097 3.625 6.5573C3.625 6.58517 3.6338 6.62331 3.66901 6.63505C3.70422 6.64678 3.73062 6.61011 3.74529 6.58664C3.74886 6.58055 3.75278 6.57467 3.75703 6.56903L3.7673 6.55583C3.80837 6.49727 3.86463 6.45103 3.93003 6.42208C3.99543 6.39313 4.06749 6.38257 4.13844 6.39153C4.18817 6.39149 4.23762 6.3989 4.28514 6.41353C4.35272 6.43849 4.41054 6.48442 4.45013 6.5446C4.48973 6.60479 4.50902 6.67606 4.50518 6.748C4.50553 6.76957 4.51405 6.7902 4.52903 6.80573C4.54401 6.82125 4.56433 6.83051 4.58587 6.83162V6.83162C4.59888 6.83115 4.61163 6.8279 4.62327 6.82208C4.63491 6.81626 4.64517 6.808 4.65335 6.79788C4.68413 6.75906 4.72252 6.72693 4.76616 6.70347C4.8098 6.68001 4.85777 6.66571 4.90714 6.66145C4.97189 6.662 5.03583 6.67599 5.09491 6.70253C5.40884 6.83455 5.26654 7.23944 5.26508 7.24237C5.24601 7.28931 5.2152 7.37 5.28121 7.41254H5.29588H5.32082C5.3451 7.41056 5.36888 7.40461 5.39124 7.39494L5.40737 7.4008Z" fill="white"/>
<path d="M11.675 5.26206C10.8323 5.45844 10.0101 5.73399 9.21929 6.08503C8.65157 5.59799 7.3401 4.47136 6.98362 4.21317C6.84156 4.09587 6.68025 4.00405 6.50686 3.94178C6.43003 3.91756 6.34974 3.90616 6.26921 3.90804C6.16922 3.90993 6.07018 3.92776 5.97581 3.96085C5.72287 4.06688 5.49012 4.21576 5.2878 4.40095L5.2746 4.41268C5.10871 4.56738 4.91643 4.6911 4.70688 4.77796C4.63896 4.79308 4.56963 4.80095 4.50004 4.80143V4.80143C4.36929 4.81154 4.23936 4.77345 4.13477 4.69434L4.1509 4.6694L4.64527 4.12809C5.02815 3.73787 5.38903 3.37113 6.2252 3.34473H6.26627C6.64596 3.35877 7.01923 3.44698 7.36504 3.60438C7.84675 3.83656 8.37502 3.95596 8.90976 3.95352C9.48236 3.93967 10.0453 3.80258 10.5601 3.55157C11.141 4.04447 11.5356 4.63126 11.675 5.26206Z" fill="white"/>
<path d="M5.97339 2.11285H6.04821C6.83624 2.11003 7.62081 2.21717 8.37922 2.43118L8.43057 2.44585L8.53326 2.47666C9.15923 2.66997 9.75048 2.96163 10.2848 3.3407C9.85102 3.53547 9.38271 3.6417 8.90733 3.65317H8.88533C8.40304 3.64893 7.92783 3.53664 7.49464 3.32457C7.10757 3.15191 6.69044 3.05672 6.26679 3.04437H6.20077C5.69054 3.0414 5.19594 3.22031 4.80568 3.54901C4.57079 3.56518 4.33875 3.61001 4.11474 3.68251C3.96197 3.73605 3.8025 3.76814 3.64091 3.77786H3.47661H3.45607C2.87856 3.67985 2.31135 3.5286 1.76172 3.32603C2.84581 2.56761 4.36999 2.12605 5.97339 2.11285Z" fill="#00BCFF"/>
<path d="M1.4919 3.53418C2.25033 3.83784 3.13051 4.05349 3.39896 4.06816H3.45911C3.51926 4.06816 3.58234 4.07549 3.64542 4.07696C3.839 4.06831 4.0305 4.03327 4.2146 3.9728C4.28795 3.9508 4.3613 3.93026 4.43465 3.91266L4.42438 3.92293L3.92121 4.47451C3.87797 4.51439 3.84772 4.56634 3.83437 4.62363C3.82103 4.68092 3.82522 4.7409 3.84639 4.79578C3.87891 4.86322 3.92974 4.92016 3.99309 4.96008C4.16426 5.05515 4.35773 5.10276 4.55347 5.09797C4.62807 5.09766 4.7024 5.0888 4.77498 5.07157C4.99356 5.02169 5.21507 4.84125 5.45859 4.64614C5.64921 4.47887 5.86701 4.34541 6.10259 4.25153C6.15908 4.23626 6.2172 4.22788 6.2757 4.22659H6.3197C6.49917 4.25558 6.6669 4.33436 6.8038 4.45397C7.20135 4.74737 8.90011 6.21434 9.09668 6.3757C9.13029 6.40638 9.15706 6.44378 9.17525 6.48549C9.19345 6.52719 9.20267 6.57225 9.2023 6.61775C9.20037 6.66211 9.18691 6.70519 9.16324 6.74275C9.13958 6.78031 9.10652 6.81105 9.06734 6.83193C9.00184 6.87646 8.925 6.9014 8.84583 6.90381V6.90381C8.77982 6.90343 8.71507 6.88573 8.65806 6.85247C8.65806 6.85247 8.63605 6.83193 8.61551 6.80259C8.45855 6.65589 7.98178 6.23487 7.78521 6.06911C7.75067 6.03204 7.70365 6.00905 7.65318 6.00456C7.63829 6.00438 7.62355 6.00759 7.61008 6.01395C7.59661 6.0203 7.58477 6.02963 7.57543 6.04123C7.53289 6.09551 7.55489 6.17326 7.63264 6.23781L8.37786 6.97129C8.42706 7.0199 8.459 7.08327 8.46882 7.15173C8.47066 7.20734 8.45712 7.26238 8.42968 7.31078C8.40225 7.35919 8.36198 7.39908 8.31332 7.42605C8.2432 7.47699 8.15936 7.50562 8.07274 7.5082V7.5082C8.00562 7.50923 7.93956 7.49145 7.88203 7.45686L7.76907 7.34537C7.57543 7.15907 7.37592 6.96689 7.23069 6.8466C7.19459 6.81087 7.14763 6.78816 7.0972 6.78205V6.78205C7.08343 6.78224 7.06985 6.7852 7.05725 6.79074C7.04465 6.79629 7.03329 6.80431 7.02385 6.81433C7.00331 6.83927 6.97691 6.89061 7.03705 6.96102C7.04864 6.97707 7.06192 6.99183 7.07666 7.00503L7.61944 7.60356C7.64545 7.63202 7.66082 7.66859 7.66296 7.70709C7.6651 7.74558 7.65387 7.78363 7.63118 7.8148L7.61504 7.83827C7.60037 7.85441 7.58423 7.86908 7.56956 7.88228C7.50017 7.93408 7.41556 7.96142 7.32898 7.96003C7.30701 7.96168 7.28494 7.96168 7.26297 7.96003C7.20282 7.94976 7.18375 7.93509 7.17788 7.92776L7.16028 7.91015C7.00675 7.74945 6.84466 7.59715 6.67471 7.45393C6.64039 7.4195 6.59539 7.39777 6.54709 7.39231C6.53269 7.3921 6.51842 7.395 6.50525 7.40083C6.49208 7.40665 6.48033 7.41526 6.4708 7.42605C6.42533 7.4774 6.44586 7.55221 6.52361 7.62263L6.93143 8.07886C6.92116 8.09353 6.87569 8.1434 6.72019 8.16394C6.69968 8.16538 6.67909 8.16538 6.65858 8.16394C6.5197 8.1562 6.38412 8.11868 6.26103 8.05392C6.29554 7.96661 6.31297 7.87348 6.31237 7.77959C6.31085 7.59057 6.23539 7.40965 6.10214 7.27557C5.96889 7.1415 5.78843 7.06492 5.59942 7.06225C5.61164 6.92994 5.58177 6.79716 5.51407 6.68283C5.44637 6.5685 5.34429 6.47847 5.22241 6.42558C5.12961 6.38577 5.02997 6.36435 4.92902 6.3625V6.3625C4.86384 6.36379 4.79916 6.37415 4.73684 6.39331C4.65953 6.26444 4.53808 6.16801 4.39504 6.12192C4.31238 6.09176 4.22481 6.07733 4.13685 6.07937C4.0034 6.08005 3.87299 6.11928 3.76131 6.19233C3.70357 6.12915 3.63333 6.07866 3.55504 6.04406C3.47676 6.00946 3.39214 5.99152 3.30655 5.99136V5.99136C3.15456 5.9934 3.00853 6.05077 2.89579 6.15272C2.72269 6.03096 2.13737 5.68916 0.673332 5.36936C0.605852 5.35469 0.462088 5.31508 0.341797 5.28134C0.462088 4.65201 0.864038 4.04469 1.4919 3.53418Z" fill="white"/>
<path d="M11.7251 5.96393C11.7251 6.01234 11.7148 6.06075 11.709 6.11062C11.5799 6.9424 11.0136 7.72429 10.0821 8.32575C9.00242 9.03283 7.56332 9.42598 6.03034 9.43918H5.95405C2.82647 9.43918 0.279809 7.82551 0.263672 5.8231C0.263672 5.76002 0.263672 5.69107 0.272474 5.61332L0.590807 5.6852C2.03431 5.99327 2.57562 6.31893 2.70911 6.41869C2.68556 6.48662 2.67366 6.55804 2.67391 6.62993C2.67545 6.79284 2.74115 6.94858 2.85676 7.06337C2.97238 7.17816 3.12858 7.24275 3.2915 7.24312C3.31935 7.24458 3.34726 7.24458 3.37512 7.24312C3.40486 7.35682 3.46219 7.46141 3.54203 7.54765C3.62187 7.63388 3.72175 7.69909 3.83281 7.73749C3.90147 7.76463 3.97463 7.77856 4.04846 7.77857C4.08688 7.77815 4.12518 7.77422 4.16288 7.76683C4.23956 7.9195 4.37268 8.03631 4.53402 8.0925C4.61119 8.12272 4.69321 8.13863 4.77607 8.13944C4.8293 8.13988 4.88227 8.13196 4.93304 8.11597C4.99162 8.23905 5.08392 8.34299 5.19921 8.41569C5.31451 8.4884 5.44807 8.5269 5.58438 8.52672V8.52672C5.76964 8.52464 5.94708 8.45167 6.08021 8.32282C6.25718 8.41931 6.45389 8.47401 6.65526 8.48272C6.68607 8.48272 6.71688 8.48272 6.74768 8.48272C6.82797 8.47924 6.90657 8.45858 6.97818 8.42214C7.0498 8.3857 7.11277 8.33432 7.16284 8.27147L7.17604 8.25387C7.23079 8.26723 7.28692 8.27413 7.34327 8.27441C7.4877 8.26967 7.62669 8.21819 7.73936 8.12771C7.84879 8.05147 7.92899 7.94023 7.96674 7.81231C7.99754 7.81231 8.03128 7.81231 8.06209 7.81231C8.20664 7.80902 8.34699 7.76309 8.46551 7.68028C8.55127 7.63088 8.62314 7.56059 8.67444 7.47595C8.72574 7.39131 8.75479 7.29507 8.7589 7.19618C8.78915 7.1991 8.81961 7.1991 8.84985 7.19618C8.98546 7.19359 9.11741 7.15181 9.2298 7.07589C9.30558 7.02888 9.36897 6.96439 9.41466 6.88781C9.46035 6.81123 9.48701 6.72481 9.49239 6.6358C9.50025 6.52657 9.47738 6.41731 9.42637 6.3204C10.1699 6.01531 10.9367 5.77004 11.7192 5.58691C11.7192 5.64999 11.731 5.71454 11.731 5.77909C11.731 5.84363 11.7295 5.90231 11.7251 5.96393Z" fill="#00BCFF"/>
</svg>
